<svg display="none" xmlns="http://www.w3.org/2000/svg">
    <symbol id="search" viewBox="0 0 18 18">
<g id="surface1">
<path style=" stroke:none;fill-rule:evenodd;fill-opacity:1;" d="M 3.527344 7.15625 C 3.945312 7.078125 4.328125 7.308594 4.40625 7.722656 C 4.519531 8.410156 4.824219 8.980469 5.324219 9.476562 C 5.816406 9.933594 6.429688 10.273438 7.078125 10.390625 C 7.460938 10.46875 7.730469 10.851562 7.652344 11.265625 C 7.578125 11.65625 7.207031 11.925781 6.8125 11.871094 C 5.859375 11.6875 4.980469 11.222656 4.289062 10.542969 C 3.605469 9.855469 3.140625 8.980469 2.953125 8.027344 C 2.878906 7.613281 3.105469 7.234375 3.527344 7.15625 Z M 7.382812 0 C 11.460938 0 14.773438 3.296875 14.773438 7.363281 C 14.773438 8.457031 14.535156 9.496094 14.105469 10.425781 L 16.855469 12.824219 C 18.859375 14.878906 17.730469 16.667969 17.199219 17.199219 C 16.703125 17.730469 14.851562 18.863281 12.808594 16.855469 L 10.386719 14.089844 C 9.46875 14.496094 8.457031 14.722656 7.386719 14.722656 C 3.308594 14.722656 0 11.425781 0 7.359375 C 0 3.292969 3.304688 0 7.382812 0 Z M 13.910156 15.90625 C 14.253906 16.289062 15.234375 16.925781 16.121094 16.171875 C 16.371094 15.964844 16.867188 14.914062 15.855469 13.96875 L 13.3125 11.757812 C 12.859375 12.359375 12.320312 12.890625 11.707031 13.332031 Z M 7.382812 13.1875 C 10.609375 13.1875 13.226562 10.578125 13.226562 7.363281 C 13.226562 4.148438 10.609375 1.539062 7.382812 1.539062 C 4.15625 1.539062 1.542969 4.148438 1.542969 7.363281 C 1.542969 10.578125 4.152344 13.1875 7.382812 13.1875 Z M 7.382812 13.1875 "/>
</g>
    </symbol>

    <symbol id="heart" viewBox="0 0 18 18">
   <svg xmlns="http://www.w3.org/2000/svg" width="19" height="18" viewBox="1.983 1.721 17.859 15.523"><path paint-order="stroke fill markers" fill-rule="evenodd" d="M10.913 17.244a.707.707 0 0 1-.28-.056c-.353-.15-8.65-3.75-8.65-10.76.091-2.65 2.207-4.707 4.818-4.707 1.743 0 3.266.918 4.112 2.31a4.796 4.796 0 0 1 4.112-2.31c2.61 0 4.725 2.058 4.817 4.684 0 7.034-8.297 10.634-8.65 10.783a.71.71 0 0 1-.28.056zM6.8 3.106c-1.847 0-3.343 1.47-3.408 3.346 0 5.408 6.125 8.663 7.52 9.335 1.395-.672 7.52-3.93 7.52-9.358-.065-1.853-1.563-3.323-3.408-3.323s-3.342 1.47-3.408 3.346a.7.7 0 0 1-.704.67.7.7 0 0 1-.705-.67c-.064-1.876-1.561-3.346-3.407-3.346z"/></svg>
    </symbol>

    <symbol id="dots" viewBox="0 0.5 21 21">
    <svg xmlns="http://www.w3.org/2000/svg" width="21" height="22" viewBox="2 1.589 20.029 20.029"><path paint-order="stroke fill markers" fill-rule="evenodd" d="M4.146 5.88A2.144 2.144 0 0 1 2 3.736c0-1.187.96-2.146 2.146-2.146 1.187 0 2.146.959 2.146 2.146 0 1.186-.96 2.146-2.146 2.146zm0 7.87A2.145 2.145 0 0 1 2 11.603c0-1.186.96-2.145 2.146-2.145 1.187 0 2.146.959 2.146 2.145 0 1.187-.96 2.147-2.146 2.147zm0 7.868A2.144 2.144 0 0 1 2 19.472c0-1.187.96-2.146 2.146-2.146 1.187 0 2.146.96 2.146 2.146 0 1.187-.96 2.146-2.146 2.146zM12.014 5.88a2.144 2.144 0 0 1-2.146-2.146c0-1.187.96-2.146 2.146-2.146 1.187 0 2.146.959 2.146 2.146 0 1.186-.959 2.146-2.146 2.146zm0 7.869a2.145 2.145 0 0 1-2.146-2.147c0-1.186.96-2.145 2.146-2.145 1.187 0 2.146.959 2.146 2.145 0 1.187-.959 2.147-2.146 2.147zm0 7.868a2.144 2.144 0 0 1-2.146-2.146c0-1.187.96-2.146 2.146-2.146 1.187 0 2.146.96 2.146 2.146 0 1.187-.959 2.146-2.146 2.146zM19.883 5.88a2.144 2.144 0 0 1-2.146-2.146c0-1.187.96-2.146 2.146-2.146 1.187 0 2.146.959 2.146 2.146 0 1.186-.96 2.146-2.146 2.146zm0 7.869a2.145 2.145 0 0 1-2.146-2.147c0-1.186.96-2.145 2.146-2.145 1.187 0 2.146.959 2.146 2.145 0 1.187-.96 2.147-2.146 2.147zm0 7.868a2.144 2.144 0 0 1-2.146-2.146c0-1.187.96-2.146 2.146-2.146 1.187 0 2.146.96 2.146 2.146 0 1.187-.96 2.146-2.146 2.146z"/></svg>
    </symbol>

    <symbol id="cart" viewBox="0 0.043 20 17.915">
    <svg xmlns="http://www.w3.org/2000/svg" width="20" height="18" viewBox="2 1.998 18.956 16.98"><path paint-order="stroke fill markers" fill-rule="evenodd" d="M7.526 18.978c-.536 0-1.063-.21-1.461-.607a2.066 2.066 0 0 1-.453-2.26 2.068 2.068 0 0 1 1.915-1.28h.006c.55 0 1.07.214 1.46.602.393.394.609.913.609 1.467.002.84-.5 1.593-1.277 1.917-.258.108-.53.16-.799.16zm.007-2.963h-.004a.887.887 0 0 0-.628 1.518.89.89 0 1 0 .632-1.518zm8.385 2.963c-.537 0-1.064-.21-1.461-.607a2.065 2.065 0 0 1-.452-2.26 2.065 2.065 0 0 1 1.913-1.28c.546-.04 1.08.218 1.468.603.392.393.607.912.607 1.466a2.064 2.064 0 0 1-1.274 1.917c-.26.108-.532.16-.8.16zm.006-2.963h-.001c-.331.032-.685.215-.823.548a.89.89 0 1 0 .824-.548zm-11.279.163a.592.592 0 0 1-.536-.843c.579-1.24 1.627-1.973 3.054-2.15L6.108 7.792a.593.593 0 0 1 1.163-.227l1.091 5.578h9.423l1.807-6.771H6.29A4.354 4.354 0 0 1 2.007 2.68a.591.591 0 1 1 1.171-.175 3.165 3.165 0 0 0 3.115 2.682h14.07a.592.592 0 0 1 .573.745l-2.123 7.956a.594.594 0 0 1-.573.44H7.885a.044.044 0 0 0-.023 0c-1.33 0-2.205.493-2.68 1.51a.593.593 0 0 1-.537.34z"/></svg>
    </symbol>

    <symbol id="dots" viewBox="0 0.5 21 21">
<svg xmlns="http://www.w3.org/2000/svg" width="21" height="22" viewBox="2 1.589 20.029 20.029"><path paint-order="stroke fill markers" fill-rule="evenodd" d="M4.146 5.88A2.144 2.144 0 0 1 2 3.736c0-1.187.96-2.146 2.146-2.146 1.187 0 2.146.959 2.146 2.146 0 1.186-.96 2.146-2.146 2.146zm0 7.87A2.145 2.145 0 0 1 2 11.603c0-1.186.96-2.145 2.146-2.145 1.187 0 2.146.959 2.146 2.145 0 1.187-.96 2.147-2.146 2.147zm0 7.868A2.144 2.144 0 0 1 2 19.472c0-1.187.96-2.146 2.146-2.146 1.187 0 2.146.96 2.146 2.146 0 1.187-.96 2.146-2.146 2.146zM12.014 5.88a2.144 2.144 0 0 1-2.146-2.146c0-1.187.96-2.146 2.146-2.146 1.187 0 2.146.959 2.146 2.146 0 1.186-.959 2.146-2.146 2.146zm0 7.869a2.145 2.145 0 0 1-2.146-2.147c0-1.186.96-2.145 2.146-2.145 1.187 0 2.146.959 2.146 2.145 0 1.187-.959 2.147-2.146 2.147zm0 7.868a2.144 2.144 0 0 1-2.146-2.146c0-1.187.96-2.146 2.146-2.146 1.187 0 2.146.96 2.146 2.146 0 1.187-.959 2.146-2.146 2.146zM19.883 5.88a2.144 2.144 0 0 1-2.146-2.146c0-1.187.96-2.146 2.146-2.146 1.187 0 2.146.959 2.146 2.146 0 1.186-.96 2.146-2.146 2.146zm0 7.869a2.145 2.145 0 0 1-2.146-2.147c0-1.186.96-2.145 2.146-2.145 1.187 0 2.146.959 2.146 2.145 0 1.187-.96 2.147-2.146 2.147zm0 7.868a2.144 2.144 0 0 1-2.146-2.146c0-1.187.96-2.146 2.146-2.146 1.187 0 2.146.96 2.146 2.146 0 1.187-.96 2.146-2.146 2.146z"/></svg>    
</symbol>


<symbol id="play">
<svg id="big-c"
 xmlns="http://www.w3.org/2000/svg"
 xmlns:xlink="http://www.w3.org/1999/xlink"
 width="127px" height="127px">
<path fill-rule="evenodd"  opacity="0.4" fill="rgb(163, 187, 200)"
 d="M63.500,-0.000 C98.570,-0.000 127.000,28.430 127.000,63.500 C127.000,98.570 98.570,127.000 63.500,127.000 C28.430,127.000 -0.000,98.570 -0.000,63.500 C-0.000,28.430 28.430,-0.000 63.500,-0.000 Z"/>

 <svg 
 xmlns="http://www.w3.org/2000/svg"
 xmlns:xlink="http://www.w3.org/1999/xlink"
 x="15" y="15" width="98px" height="98px">
<path fill-rule="evenodd"  fill="rgb(163, 187, 200)"
 d="M49.000,-0.000 C76.062,-0.000 98.000,21.938 98.000,49.000 C98.000,76.062 76.062,98.000 49.000,98.000 C21.938,98.000 -0.000,76.062 -0.000,49.000 C-0.000,21.938 21.938,-0.000 49.000,-0.000 Z"/>
</svg>

<svg 
 xmlns="http://www.w3.org/2000/svg"
 xmlns:xlink="http://www.w3.org/1999/xlink"
 x="55" y="50" width="22px" height="25px">
<path fill-rule="evenodd"  fill="rgb(255, 255, 255)"
 d="M20.684,14.740 L4.640,24.536 C4.139,24.842 3.559,24.997 2.977,24.997 C2.498,24.997 2.017,24.891 1.578,24.680 C0.606,24.210 -0.001,23.293 -0.001,22.295 L-0.001,2.700 C-0.001,1.701 0.606,0.783 1.578,0.314 C2.549,-0.155 3.727,-0.100 4.640,0.457 L20.684,10.255 C21.506,10.757 21.999,11.598 21.999,12.496 C21.999,13.396 21.506,14.237 20.684,14.740 Z"/>
</svg>
</svg>
</symbol>

</svg>



